<?xml version="1.0" encoding="utf-8"?>
<!-- Generator: Adobe Illustrator 24.3.0, SVG Export Plug-In . SVG Version: 6.00 Build 0)  -->
<svg version="1.1" id="Layer_1" xmlns="http://www.w3.org/2000/svg" xmlns:xlink="http://www.w3.org/1999/xlink" x="0px" y="0px"
	 viewBox="0 0 178.2 61.1" style="enable-background:new 0 0 178.2 61.1;" xml:space="preserve">
<style type="text/css">
	.st0{fill:#FFFFFF;}
	.st1{fill:#85C381;}
</style>
<image style="display:none;overflow:visible;" width="1440" height="400" xlink:href="../../PSD/exports/web 2.png"  transform="matrix(0.3917 0 0 0.3917 -346.5 -45.3)">
</image>
<g>
	<g id="plant-tastic-lockup">
		<path class="st0" d="M87.6,48.2c-1.2-0.6-1.7-1.6-2.2-2.6c-1-2.3-1.2-4.6-1.3-7c-0.2-1.5,0-0.2-0.1-1.8l0-1.6
			c0-0.2,0.1-0.4,0.2-0.6c0.1-0.2,0.5-0.6,0.9-0.6c1.7,0.1,0.6,0.1,2.3,0.1c0.6,0,1.3-0.1,2-0.1c0.5-0.1,1-0.6,1.2-1.3
			c0.1-0.3-0.2-1-0.5-1.2c-1.1-0.4-2.2-0.8-3.5-0.9c0,0,0,0-0.2,0c0,0-0.1,0-0.1,0c0,0-0.1,0-0.1,0c-1.6-0.1-1.9-0.4-2-1.7L84,24.4
			c-0.1-1-0.1-2-0.3-2.9c-0.2-1.3-1.5-1.9-3.2-1.7c-0.5,0.1-0.7,0.4-0.8,0.7c-0.2,0.4-0.3,0.9-0.3,1.3c-0.1,1.6-0.1,2.6-0.1,4.3
			c0,0.3,0,0.7-0.1,1c0,0,0,0,0,0c0.2,1.1,0,2.2,0,3.3c0,0.5-0.1,1-0.1,1.6c0,0,0,0,0,0c0,2.4,0.1,4.8,0.2,7.2
			c0.1,2.5,0.4,5,1.4,7.4c0.9,2,2.6,3.4,4.9,4.4c0.7,0.3,1.5,0.4,2.3,0.2c0.6-0.1,1.1-0.4,1.2-0.8c0.1-0.5,0.1-0.9-0.3-1.2
			C88.4,48.7,88.1,48.4,87.6,48.2z"/>
		<path class="st0" d="M29.3,48.3c-1-0.5-1.6-1.1-1.8-2.1c-0.1-1-0.5-1.9-0.6-2.8c-0.1-3.4-0.1-6.8,0.6-10.2
			c0.6-3.6,1.3-7.2,1.9-10.9c0.2-1.2,0.3-2.3,0.5-3.5c0.1-1-0.3-1.9-0.8-2.8c-0.5-0.8-1.9-1.4-3.1-1.3c-0.5,0.1-1.2,0.7-1.2,1.1
			c-0.1,1.9-0.2,3.7-0.4,5.6c-0.4,2.7-1.1,5.8-1.5,8.5c-0.5,3.6-0.9,6.8-1.3,10.5c-0.1,2.6,0.2,5.2,0.9,7.7c0.1,0.5,0.5,1,0.9,1.4
			c1.7,1.4,3.6,1.8,5.8,1.1c0.3,0,0.5-0.2,0.8-0.4c0.4-0.2,0.6-1.1,0.2-1.4C29.7,48.6,29.6,48.4,29.3,48.3z"/>
		<path class="st0" d="M52.3,33.3c0.1-1.7-0.2-3.3-0.3-5c-0.1-1.1-0.9-1.7-1.9-1.9c-4.1-2.6-5.3-2.3-8-2c-1.6,0.1-2.9,0.8-4,1.9
			c-3.6,3.5-5.6,7.9-6.5,12.9C31.3,41,31.1,43,31.4,45c0.4,3.3,3.6,5.7,6.9,5.3c1.8-0.2,3.2-1,4.3-2.4c1.7-2.1,3-4.4,4.2-6.7
			c0.2-0.3,0.4-0.5,0.7-0.3c0.1,0.1,0.3,0.2,0.3,0.3c0.2,1.2,0.4,2.4,0.5,2.7c0.2,2.4,0.3,3.8,0.5,5.1c0.2,1.3,1.2,2.1,2.7,2.1
			c1.3,0.1,2.2-0.8,2.1-2c-0.1-1.1-0.2-2.2-0.3-3.3C52.6,40.9,52.2,38.2,52.3,33.3z M45.6,32.9c-1.5,3.8-3,7.5-5.1,10.9
			c-0.5,0.8-1.1,1.6-1.7,2.4c-0.3,0.3-0.7,0.5-1,0.6c-0.4,0.2-0.8,0.1-1.1-0.2c-0.7-0.7-0.9-1.7-1-2.7c0.1-6.4,2-12,7-16.2
			c0.4-0.3,0.9-0.6,1.5-0.8c0.8-0.3,1.9,0.3,1.9,1C46.2,29.7,46.2,31.4,45.6,32.9z"/>
		<path class="st0" d="M73.5,25.1c-2.3-1.7-5.5-1.5-7.3,0.7c-0.9,1.1-1.6,2.3-2.3,3.5c-0.6,1-1,2.1-1.5,3.1c-0.1,0.3-0.6,0.4-1,0.8
			L61,30.8c-0.2-1.4-0.7-2.7-1.3-4c-0.8-1.6-2.5-2.4-4.6-2.2c-0.5,0-0.6,0.4-0.9,0.7c-0.2,0.4-0.1,0.8,0.2,1
			c1.4,1.1,1.9,2.6,2.2,4.4c0.6,2.8,0.8,5.6,0.7,8.4c0,2-0.1,3.9-0.2,5.8c-0.1,1-0.1,2.1,0,3.1c0.1,0.8,0.3,1.5,0.6,2.2
			c0.1,0.3,0.5,0.6,0.8,0.7c0.5,0.2,1,0.2,1.5,0.3c0.9,0.1,1.6-0.4,1.7-1.2c0.2-1,0.4-2,0.5-3.1c0.9-6.6,3.4-12.6,6.7-18.3
			c0.1-0.2,0.3-0.4,0.5-0.6l0.3-0.2c0.3-0.3,1.2-0.2,1.3,0.2c0.2,0.5,0.3,1,0.4,1.5c0.2,2,0,3.9-0.3,5.8c-0.4,2.3-0.8,7.3-0.7,9.6
			c0,1.2,0.1,2.3,0.3,3.5c0.1,0.5,0.5,0.9,0.9,1.2c0.8,0.6,1.7,0.6,2.6,0.4c0.2-0.1,0.4-0.3,0.5-0.5c0.1-0.4,0.2-0.7,0.2-1.1
			c-0.2-3.6,0-9.9,0.7-13.5c0.4-1.6,0.3-3.3,0.3-5C75.8,27.8,75.1,26.3,73.5,25.1z"/>
		<path class="st0" d="M8.5,22.6c-1.5,0.4-2.2,0.8-3.2,1.9c-1.1,1.4-2.2,1.9-3.8,1.2c-0.9-0.4-1.6,0.1-1.6,1C0.1,28.8,0.3,31,0.1,33
			c-0.5,8,0.7,15.9,1,23.8c0,0.5,0.5,2.4,0.8,2.7c0.6,0.7,1,1.3,1.9,1.5c0.9,0.2,1.9-0.4,2.1-1.3c0.3-2.1,0.4-4.2,0.1-6.2
			c-0.2-1.4-0.4-4.3-0.6-5.7c-0.1-0.8-0.1-1.5,0.5-2.2c0.5,0.2,1.1,0.3,1.6,0.7c0.8,0.4,4.1,0.8,5.9-0.4c2.7-1.8,3.5-2.9,4.5-4.4
			c2.1-3,1.5-8.3,1.1-9.9C18.5,29.8,17.2,22.1,8.5,22.6z M13.4,38.7c-3.3,5-8.5,2.1-8.4-1.4c-0.3-2.3,0.3-5.8,1.6-7.7
			c2.2-3.2,3.7-3.2,5.2-3c0.9,0.3,1.6,0.9,2.3,2.3C15,31.1,15.7,34.8,13.4,38.7z"/>
		<path class="st0" d="M99.5,37.9c-0.4-0.3-0.2-0.1-0.3-0.2c-0.1,0-0.2-0.1-0.2-0.1l-0.2,0l0,0l-0.1,0l-0.2,0c-0.1,0-0.2,0-0.3,0
			c-0.2,0-0.4,0-0.6,0c-0.4,0-0.8,0.1-1.1,0.2c-0.8,0.2-1.5,0.3-2.2,0.2c-0.7-0.2-1.5-0.6-2.2-0.6c-0.8-0.1-1.5-0.2-2.3,0
			c-0.7,0.1-1.2,0.6-1.4,1.3c-0.2,0.9,0.4,1.7,1.3,1.9l0.1,0c0.7,0.1,1.4,0.1,2.2,0.1c0.7,0,1.5-0.4,2.2-0.5
			c0.7-0.1,1.5,0.1,2.2,0.3c0.4,0.1,0.7,0.2,1.1,0.3c0.2,0,0.4,0.1,0.5,0.1c0.1,0,0.2,0,0.2,0c0,0,0,0,0.1,0c0.1,0,0.2,0,0.3,0
			l0.1,0l0.1,0l0.1,0c0.2,0,0.4-0.1,0.6-0.3c0,0,0.1-0.1,0.1-0.1c0,0,0.4-0.3,0.5-0.9C100.2,38.8,99.8,38,99.5,37.9z M97.8,37.7
			C97.8,37.7,97.8,37.6,97.8,37.7C97.8,37.6,97.8,37.7,97.8,37.7z M98,37.6c0,0,0.1,0,0.1,0l0.1,0l0.1,0l0,0
			C98.2,37.5,98.1,37.6,98,37.6z"/>
		<path class="st0" d="M157,26.6C157,26.6,157,26.6,157,26.6c0,0.1,0.1,0.2,0.1,0.3c0,0,0,0.1,0.1,0.1c0,0,0,0.1,0,0.1c0,0,0,0,0,0
			c0,0,0.1,0.1,0.1,0.1c0,0,0,0,0,0c0,0,0,0,0,0c0.1,0,0.1,0.1,0.2,0.1c0,0,0.1,0,0.1,0c0.1,0,0.1,0.1,0.2,0.1
			c0.2,0.1,0.5,0.1,0.8,0.2c0,0,0.1,0,0.1,0c0.1,0,0.1,0,0.2,0c0.1,0,0.2,0,0.4,0c0.1,0,0.2,0,0.4,0c0,0,0,0,0.1,0c0,0,0,0,0,0
			c0.1,0,0.1,0,0.2,0c0.1,0,0.2-0.1,0.4-0.1c0,0,0,0,0,0c0,0,0.1,0,0.1-0.1c0.1,0,0.1-0.1,0.1-0.1c0,0,0,0,0,0
			c0.1-0.1,0.1-0.1,0.2-0.2c0,0,0.1-0.1,0.1-0.1c0,0,0,0,0-0.1c0.1-0.1,0.1-0.2,0.1-0.2c0,0,0,0,0,0c0,0,0-0.1,0-0.1
			c0,0,0-0.1,0-0.1c0,0,0,0,0,0c0-0.1,0-0.2,0-0.3c0,0,0-0.1,0-0.1c0,0,0,0,0-0.1c0-0.1-0.1-0.2-0.1-0.3c0,0,0,0,0,0c0,0,0,0,0,0
			c0,0,0-0.1-0.1-0.1c0-0.1-0.1-0.1-0.1-0.2c0,0,0-0.1-0.1-0.1c0,0-0.1-0.1-0.1-0.1c0-0.1-0.1-0.1-0.1-0.1c-0.2-0.2-0.3-0.3-0.6-0.5
			c-0.1-0.1-0.3-0.1-0.4-0.2c-0.6-0.1-1.2,0-1.8,0.2c-0.1,0.1-0.3,0.1-0.4,0.2c-0.1,0.1-0.2,0.2-0.2,0.3c-0.1,0.3-0.2,0.6-0.2,0.9
			c0,0.1,0,0.2,0,0.4c0,0,0,0.2,0,0.2C156.9,26.5,157,26.6,157,26.6z"/>
		<path class="st0" d="M160.7,25.3C160.7,25.2,160.7,25.3,160.7,25.3C160.8,25.3,160.8,25.3,160.7,25.3z"/>
		<path class="st0" d="M160.8,27.1C160.8,27.1,160.7,27.1,160.8,27.1C160.8,27.1,160.8,27.1,160.8,27.1z"/>
		<path class="st0" d="M157.7,43.5c0.4,1.2,1.1,1.9,2.3,2.2c0.5,0.1,1.2-0.4,1.2-1.1c0-0.4,0-0.8-0.2-1.2c-0.8-2.1-0.9-4.2-0.9-6.4
			l0-1.5c0.1-1.7,0.2-3,0.3-4.4c0.1-0.9-0.5-1.5-1.2-1.9c-0.9-0.4-1.9,0.1-2,1.1c-0.4,2.9-0.6,5.8-0.3,8.7
			C156.9,40.5,157.2,42,157.7,43.5z"/>
		<path class="st0" d="M146.5,37.8c0.1,1.9,0.3,3.7,1.1,5.5c0.7,1.5,2,2.5,3.6,3.3c0.5,0.2,1.1,0.3,1.7,0.1c0.5-0.1,0.8-0.3,0.9-0.6
			c0-0.3,0-0.7-0.2-0.9c-0.2-0.3-0.5-0.5-0.8-0.6c-0.9-0.5-1.3-1.2-1.6-1.9c-0.7-1.7-0.9-3.5-1-5.3c-0.1-1.1,0-0.2-0.1-1.3l0-1.2
			c0-0.2,0.1-0.3,0.1-0.5c0-0.2,0.4-0.4,0.7-0.4c1.3,0.1,0.4,0.1,1.7,0.1c0.5,0,1,0,1.5-0.1c0.4,0,0.8-0.5,0.9-0.9
			c0-0.3-0.2-0.8-0.4-0.9c-0.9-0.3-1.7-0.6-2.6-0.6c0,0,0,0-0.1,0c0,0-0.1,0-0.1,0c0,0,0,0-0.1,0c-1.2-0.1-1.4-0.3-1.5-1.3l-0.1-3.3
			c-0.1-0.7-0.1-1.5-0.2-2.2c-0.2-1-1.1-1.4-2.4-1.2c-0.4,0.1-0.5,0.3-0.6,0.5c-0.1,0.3-0.2,0.7-0.2,1c-0.1,1.2-0.1,2-0.1,3.2
			c0,0.3,0,0.5-0.1,0.7c0,0,0,0,0,0c0.1,0.8,0,1.6,0,2.4c0,0.4-0.1,0.8-0.1,1.2c0,0,0,0,0,0C146.4,34.3,146.4,36,146.5,37.8z"/>
		<path class="st0" d="M132.3,43.7c0.9,0.8,1.9,1.6,2.8,2.3c1.1,0.8,2.3,1.2,3.6,1.2c0.4,0,0.8,0,1.1-0.1c1.2-0.1,2.2-0.9,3-2
			c1.1-1.5,1.6-3.4,1.4-5.7c0-0.9-0.3-1.8-0.8-2.6c-0.6-0.9-1.4-1.6-2.1-2.1c-0.8-0.6-1.8-1.2-2.9-1.7c-1.2-0.6-2.2-1.3-3-2.3
			c-0.2-0.2-0.3-0.5-0.3-0.8l0-0.2c0-0.3-0.1-0.6,0-0.9c0-0.7,0.4-1.3,1.1-1.5c0.8-0.3,1.6-0.1,2.4,0.5l0.1,0c0.5,0.5,1.1,1,1.7,1.2
			c0.3,0.1,0.7,0,0.8-0.1c0.4-0.2,0.5-0.8,0.5-1.2c-0.1-0.5-0.3-0.9-0.6-1.3c-1.3-1.3-2.9-1.9-4.8-2l0,0l-0.7,0.1
			c-0.6,0.1-1.2,0.2-1.8,0.3c-0.3,0.1-0.7,0.3-0.9,0.6c-0.8,1-1.2,2.2-1.1,3.6c0.1,1.2,0.5,2.4,1.3,3.3c0.5,0.5,1,1,1.6,1.6
			c1,0.8,2.2,1.5,3.4,2.2c0.8,0.4,1.5,1,2.2,1.8c0.5,0.5,0.7,1.1,0.7,1.7c0,1.2-0.3,2.3-0.9,3.5c-0.2,0.3-0.5,0.7-1,1
			c-0.5,0.3-0.9,0.4-1.3,0.1c-0.3-0.2-0.5-0.3-0.8-0.4c-0.3-0.2-0.7-0.4-1-0.6c-0.7-0.4-1.1-0.9-1.1-1.9c0-1-0.8-1.7-1.8-1.8
			c-0.9-0.1-1.2,0.5-1.5,1.4C131.3,42.1,131.5,42.9,132.3,43.7z"/>
		<path class="st0" d="M169,45.8c1.5,0.3,3,0.2,4.4,0c1.3-0.8,2.1-2,2.7-3.3c0.4-0.8,0-1.9-0.9-2.3c-0.7-0.3-1.8-0.1-2.2,0.5
			c-0.5,0.6-0.9,1.3-1.4,2c-0.1,0.2-0.4,0.4-0.7,0.6c-0.7,0.4-2,0.2-2.5-0.4c-0.6-0.6-1-1.3-1.1-2.1c-0.3-1.4-0.2-2.8,0.2-4.2
			c0.4-1.4,0.8-2.7,1.2-4.1c0.3-1,0.7-1.9,1.3-2.7c0.3-0.4,0.7-0.3,1.1-0.2c0.3,0.1,0.6,0.3,0.6,0.6c0.2,0.6,0.2,1.2,0.3,1.8
			c0.1,0.4,0.3,0.8,0.5,1.1c0.6,0.6,1.4,0.9,2.2,0.7c0.4-0.1,1-0.6,1-1c0.1-1.1-0.2-2.2-0.6-3.3c-0.1-0.2-0.2-0.3-0.4-0.5
			c-0.9-1-1.9-1.8-3.3-1.9c-0.7-0.1-1.4-0.1-2.1-0.3c-0.8-0.1-1.4,0.2-1.9,0.8c-2.2,2.7-3.3,5.8-4,9.1c-0.2,1.2-0.2,2.4,0,3.6
			C164,43.1,166,45.2,169,45.8z"/>
		<path class="st0" d="M115.9,43.4c0.7,0.3,1.4,0.4,2.1,0.5c0.8,0.1,1.5-0.1,2.2-0.5c0.9-0.5,1.6-1.1,2.3-1.9c0.4-0.5,0.9-1,1.3-1.6
			c0.1-0.1,0.3,0,0.4,0.1c0.1,0.2,0.1,0.5,0.2,0.7c0.1,0.8,0.2,0.4,0.2,1.2c0,0.9,1.2,2.7,1.3,3.5c0,0,0,0.1,0.1,0.2
			c0.5,0.4,1,0.5,1.3,1c0.1,0.1,0.2,0.2,0.4,0.2c0.2,0,0.4,0.1,0.6,0.2c0.7,0.3,1.4-0.2,1.4-1.1c0-0.3,0.1-0.7,0-1
			c-0.2-0.7-0.8-2.5-0.8-3.2c-0.1-0.6,0-0.1-0.1-0.7c-0.1-0.7-0.1-1.5-0.4-2.2c-0.2-1.3-0.3-2.7-0.5-4c-0.1-1.1-0.4-2.2-0.4-3.3
			c-0.3-0.8-0.3-1.6-0.3-2.4c0-0.2,0-0.4-0.1-0.6c-0.3-0.6-0.4-1.2-0.4-1.9c0-0.5-0.2-0.9-0.4-1.3c-0.1-0.2-0.2-0.3-0.4-0.4
			c-0.8-0.4-1.5-0.8-2.4-0.7c-0.1,0-0.3,0-0.4,0c-0.3,0-0.3,0-0.8,0.4c-0.1,0.1-0.2,0.1-0.4,0.1c-0.2-0.1-0.4-0.2-0.6-0.2
			c-0.6,0.1-1.2-0.1-1.7-0.2c-0.2,0-0.5,0-0.7,0.1c-0.5,0.2-0.9,0.4-1.3,0.9c-0.3,0.4-0.6,0.8-0.9,1.3c-0.7,1-1.2,2.2-1.8,3.4
			c-0.9,1.8-1.4,3.8-1.7,5.9c-0.4,2.2,0.2,4.2,1.4,5.9C115,42.3,115.4,42.8,115.9,43.4z M116.5,39.1c0.2-1,0.4-2,0.4-3
			c0-0.3,0.1-0.7,0.2-1c0.3-0.9,0.7-1.8,1-2.7c0.1-0.3,0.3-0.7,0.3-1c0-0.9,0.6-1.7,1.1-2.4c0.4-0.6,0.9-1.9,1.9-1.5
			c0.8,0.4,0.9,2,0.9,2.7c0.2,2.6-0.3,5.3-1.5,7.6c-0.3,0.7-0.8,1.4-1.4,2c-0.6,0.5-2,1-2.7,0.6C116.6,40.2,116.4,39.8,116.5,39.1z"
			/>
		<path class="st0" d="M103.8,31.1c0,0.1,0,0.1,0.1,0.2c0,0.1,0.1,0.2,0.1,0.2c0,1.9,0,3.7,0.1,5.6c0,0.4,0.1,1,0.1,1.6
			c0,0.3,0.1,0.6,0.1,0.8c-0.1,0.1-0.1,0.4,0,0.7c0,0.1,0.1,0.2,0.1,0.3c0.1,0.8,0.3,1.6,0.6,2.3c0.5,1.5,1.5,2.7,3.1,3.5
			c0.3,0.2,0.6,0.3,1,0.3c0.2,0,0.4,0,0.6-0.1c0.5-0.1,0.9-0.5,1-0.9c0-0.4,0-0.9-0.2-1.1c-0.2-0.3-0.5-0.6-0.7-0.8
			c-0.6-0.4-0.9-1-1.2-1.8c-0.5-1.5-0.6-3-0.7-4.1c0-0.1,0-0.3-0.1-0.4c-0.1-0.2-0.1-0.4,0-0.7l0-0.1l0-0.1c0-0.1,0-0.4,0-0.7v-0.6
			l-0.1-2.1l0-1.3c0-0.1,0-0.2,0-0.2c0-0.1,0-0.1,0-0.2c0-0.1,0.2-0.2,0.2-0.2c0.4,0,0.7,0,1,0.1c0.4,0,0.7,0.1,1.4,0.1
			c0.4,0,0.9,0,1.3-0.1c0.5-0.1,0.9-0.7,1-1.2c0-0.3-0.1-1-0.5-1.2l-0.3-0.1c-0.7-0.3-1.3-0.6-2.2-0.6c-0.4,0-0.4,0-0.6,0l-0.3,0
			c-0.9,0-1-0.1-1-1l-0.1-1.8c0-0.6-0.1-1.2-0.1-1.7c-0.1-0.5-0.3-1-0.7-1.2c-0.4-0.3-1-0.4-1.7-0.3c-0.4,0.1-0.6,0.3-0.8,0.7
			c-0.1,0.3-0.2,0.7-0.2,1.1c-0.1,1.2-0.1,2-0.1,3.3c0,0.2,0,0.5,0,0.6c0,0.1-0.1,0.2-0.1,0.2c-0.4,0.1-0.7,0.1-1.1,0.2
			c-0.6,0-1.6,0.6-1.9,0.9c-0.1,0.1-0.2,0.3-0.1,0.4c0.1,0.8,0.8,1.6,1.7,1.6c0.3,0,0.7,0.1,1,0.1L103.8,31.1z"/>
		<path class="st0" d="M177,48c-3.1-0.2-6.1-0.3-9.2-0.2c-1.5,0-3.1,0.1-4.6,0.2l-4.5,0.2c-6,0.2-12.1,0.3-18.1,0.4
			c-3,0-6.1,0.3-9.1,0.4c-3,0.1-6.1,0.1-9.1,0c-3-0.2-6-0.3-9-0.4c-1.5-0.1-3-0.2-4.5-0.3c-0.7-0.1-1.5-0.1-2.2-0.2
			c-0.3,0-0.7-0.1-1-0.2c-0.1,0-0.3-0.1-0.4-0.1c-0.1,0-0.2-0.1,0,0c-0.5-0.5-1.3-0.5-1.8,0c-0.5,0.5-0.5,1.3,0,1.8
			c0.4,0.4,0.7,0.5,0.9,0.6c0.3,0.1,0.5,0.2,0.7,0.2c0.4,0.1,0.8,0.2,1.2,0.3c0.8,0.1,1.6,0.2,2.3,0.3c1.5,0.1,3.1,0.2,4.6,0.2
			c3.1,0.1,6.1-0.1,9.1-0.2c3-0.2,6.1-0.2,9.1-0.2c3,0.1,6.1,0.2,9.1,0.3c6.1,0,12.1,0,18.2-0.2c1.5-0.1,3-0.1,4.6-0.2
			c1.5-0.1,3-0.2,4.5-0.2c3,0,6,0,9,0.2l0,0c0.7,0,1.3-0.5,1.3-1.2C178.2,48.6,177.7,48,177,48z"/>
	</g>
	<g id="NEW">
		<path id="N" class="st1" d="M43.6,14.7l-0.2-0.4c-0.3-0.5-0.4-0.8-0.6-1.1c-0.5-1-0.8-1.9-1.3-2.8c-0.4-0.8-0.8-1.6-1.1-2.4
			c-0.1-0.2-0.2-0.4-0.3-0.6c-0.1-0.2-0.2-0.1-0.2,0c-0.1,0.8-0.2,1.5-0.2,2.3c-0.2,1.7-0.4,3.4-0.4,5.2c0,0.1,0,0.3-0.1,0.4
			c0,0.4-0.4,0.8-0.8,0.9c-0.5,0.1-0.9,0-1.3-0.3c-0.2-0.1-0.3-0.4-0.4-0.6c0-0.1-0.1-0.4,0-0.6c0-0.9,0.1-1.8,0.2-2.7
			c0.2-2.2,0.4-4.1,0.7-5.9c0.1-0.7,0.2-1.3,0.4-2l0.2-0.8c0.1-0.5,0.4-0.9,0.9-1c0.3-0.1,0.5-0.1,0.7-0.1c0.5,0,1,0.2,1.3,0.6
			c0.3,0.4,0.5,0.9,0.7,1.3c0.4,0.8,0.7,1.6,1,2.4c0.2,0.4,0.2,0.5,0.3,0.7c0.8,2,1.6,3.9,2.5,5.5c0.1,0.2,0.3,0.2,0.3,0
			c0.1-0.4,0.2-1.1,0.3-1.9L46,10c0.1-0.7,0.1-1.5,0.2-2.2c0-0.4,0.1-0.8,0.1-1.2c0.2-1.7,0.5-3.5,0.9-5.3c0.3-1,1.4-1.4,2.1-0.8
			c0.2,0.1,0.4,0.5,0.4,0.7c0,0.3-0.1,0.7-0.1,0.8c-0.6,2.2-0.8,4.4-1,6.7c-0.1,1.2-0.2,2.4-0.4,3.6l-0.2,1.8c0,0.2-0.1,0.3-0.1,0.6
			c-0.2,0.9-1.3,1.6-2.1,1.3C44.8,16,44,15.5,43.6,14.7z"/>
		<path id="E" class="st1" d="M52,14.2c-0.5-0.7-0.8-1.4-0.9-2.2l0-0.8c0-0.7,0.1-2.7,0.3-3.8c0.2-1.5,0.3-3,0.5-4.6
			c0-0.4,0.1-0.6,0.2-0.8c0.1-0.3,0.4-0.6,0.7-0.6c1.1,0,2-0.6,3.2-0.9c0.6-0.1,1.1-0.3,1.7-0.4c0.6-0.1,1.3,0.1,1.8,0.2
			c0.2,0.1,0.4,0.3,0.5,0.5c0.2,0.3,0.1,0.7-0.2,0.9c-0.2,0.1-0.5,0.4-0.9,0.5c-0.6,0.2-1.2,0.3-1.8,0.5c-1,0.3-1.6,0.6-2.3,1
			c-0.2,0.2-0.4,0.4-0.4,0.6c0,0.4-0.1,0.8-0.1,1.3c0,0.1,0.1,0.2,0.2,0.1c0.6-0.2,1.2-0.4,1.9-0.7C57,5,57.5,5,58,5.1
			c0.4,0.1,0.7,0.5,0.7,0.9c0,0.2-0.1,0.5-0.2,0.6c-0.1,0.2-0.3,0.3-0.6,0.5c-0.4,0.2-0.8,0.4-1.3,0.6c-0.8,0.4-1.5,0.7-2.2,1.2
			c-0.4,0.2-0.5,0.4-0.5,0.8c-0.1,0.5-0.1,1.1-0.2,1.6c-0.1,0.6,0.1,1.3,0.3,1.8c0.2,0.4,0.4,0.6,0.8,0.6c0.7,0,1-0.1,1.3-0.2
			c0.4-0.2,0.6-0.3,0.8-0.4c0.4-0.2,1,0,1.2,0.4c0.3,0.5,0.3,1-0.1,1.4c-0.2,0.2-0.3,0.3-0.5,0.4C55.9,16.4,53.3,15.9,52,14.2z"/>
		<path id="W" class="st1" d="M62.5,14.9c-0.2-0.4-0.3-0.6-0.3-0.9c-0.1-0.5-0.1-1-0.1-1.6l-0.2-5.1c-0.1-1.8-0.2-3.3-0.5-4.7
			c-0.1-0.4-0.1-0.9-0.1-1.2c0-0.9,0.7-1.5,1.7-1.4c0.4,0.1,0.8,0.3,0.9,0.6c0.2,0.6,0.4,1.2,0.5,1.9c0.2,1.5,0.4,2.8,0.4,4.1
			c0.1,1.4,0.1,3.3,0.2,4.7c0,0.1,0.1,0.1,0.2,0c0.7-1.7,1.3-3.7,1.6-5.7c0.2-0.8,0.1-1.7,0.1-2.6c0-0.5,0.4-0.9,0.9-1
			c0.2,0,0.5-0.1,0.8,0c0.4,0.1,0.7,0.4,0.9,1l0.9,3.7c0.1,0.6,0.3,1.1,0.5,1.6c0.1,0.3,0.1,0.4,0.1,0.4c0,0.1,0.1,0.2,0.2,0
			c0.2-2.2,0.3-4.7,0.3-6.9c0-0.3,0-0.5,0.1-0.7c0-0.4,0.3-0.7,0.7-0.7c0.3,0,0.6-0.1,0.8-0.1c0.4-0.1,0.9,0.3,1,0.7
			C74,1.2,74,1.5,74,1.7c0,0.9,0,1.7-0.1,2.6c-0.1,1.4-0.3,2.8-0.4,4.2c-0.1,1.3-0.3,2.5-0.4,3.8c0,0.5-0.3,0.8-0.8,1
			c-0.1,0-0.4,0.2-0.6,0.2c-0.6,0.1-1.2-0.1-1.5-0.5c-0.4-0.5-0.7-1-1-1.7c-0.3-0.8-0.6-1.8-0.9-2.6c-0.1-0.2-0.2-0.2-0.2,0
			C68.1,9,68,9.6,67.9,9.9c-0.5,1.5-1,2.5-1.5,3.5c-0.2,0.4-0.5,0.8-0.8,1.3c-0.4,0.6-1,0.9-2,0.9C63.1,15.5,62.7,15.3,62.5,14.9z"
			/>
	</g>
	<g id="Gerber-logo">
		<path class="st0" d="M92.3,2.7h1.5v3.7h-2V6.2c0-0.6-0.4-2.8-3.1-2.8c-2.9,0-3.8,2.5-3.8,4.9c0,2.4,0.8,4.9,3.6,4.9
			c2.1,0,2.7-1.2,2.7-1.2V9.3h-2V8h4.9v6.2h-1.3c0,0-0.6-0.8-0.7-1c-0.1-0.1-1.1,1.3-3.6,1.3c-2.6,0-6.8-1.4-6.8-6.1
			c0-4.5,3.9-6.4,6.4-6.4c2.5,0,3.8,1.3,4.1,1.5C92.3,3.6,92.3,2.7,92.3,2.7"/>
		<path class="st0" d="M105,10.9c0.2-1.6-0.9-4.4-4.4-4.4c-2.5,0-4.8,1.4-4.8,4.2c0,2.8,2.2,4.1,4.8,4.1c2.2,0,3.2-0.9,3.4-1.1
			l-0.1-1.7c-0.4,0.4-1.4,1.3-2.8,1.3c-1.6,0-2.6-0.5-2.7-2.4h2.4H105z M98.5,9.7c0.1-1.1,0.9-1.9,2-1.9c1.3,0,1.9,1,1.9,1.9h-1.9
			H98.5z"/>
		<path class="st0" d="M105.9,6.8V8h1.1v5.1h-1.1v1.4h4.7v-1.4h-1v-2.7c0-0.8,0.3-2.1,1.4-2.3c0.1,0,0.1,0.2,0.1,0.6
			c0,0.4,0.2,1.4,1.4,1.4c1.2,0,1.4-1.1,1.4-1.5c0-0.5,0-2.1-2-2.1c-1.7,0-2.5,1.5-2.7,1.9V6.8H105.9z"/>
		<path class="st0" d="M134.5,10.9c0.2-1.6-0.9-4.4-4.4-4.4c-2.5,0-4.8,1.4-4.8,4.2c0,2.8,2.2,4.1,4.8,4.1c2.2,0,3.2-0.9,3.4-1.1
			l-0.1-1.7c-0.4,0.4-1.4,1.3-2.8,1.3c-1.6,0-2.6-0.5-2.7-2.4h2.4H134.5z M128,9.7c0.1-1.1,0.9-1.9,2-1.9c1.3,0,1.9,1,1.9,1.9H130
			H128z"/>
		<path class="st0" d="M135.4,6.8V8h1.1v5.1h-1.1v1.4h4.7v-1.4h-1v-2.7c0-0.8,0.4-2.1,1.4-2.3c0.1,0,0,0.2,0,0.6
			c0,0.4,0.2,1.4,1.4,1.4c1.2,0,1.4-1.1,1.4-1.5c0-0.5,0-2.1-2-2.1c-1.7,0-2.5,1.5-2.7,1.9c0,0,0-1.7,0-1.7H135.4z"/>
		<path class="st0" d="M120,6.7c-1.3,0-2.1,0.5-2.5,0.9V2.9h-3.5v1.2l1.2,0v9h-1.2v1.4h3.2v-0.9c0.8,0.7,1.3,1.1,3,1.1
			c1.6,0,4.1-0.8,4.1-4C124.2,7.5,121.7,6.7,120,6.7 M119.3,13.2c-1,0-1.8-0.7-1.8-0.9V9c0.3-0.4,0.8-1,1.8-1c0.8,0,2.1,0.5,2.1,2.4
			C121.4,12.6,120.2,13.2,119.3,13.2"/>
		<path class="st0" d="M141.5,12.9c0-0.7,0.5-1.6,1.6-1.6c1.1,0,1.6,0.8,1.6,1.6c0,0.9-0.6,1.6-1.6,1.6
			C142,14.5,141.5,13.7,141.5,12.9 M141.9,12.9c0,0.7,0.5,1.2,1.2,1.2c0.7,0,1.2-0.5,1.2-1.2c0-0.7-0.5-1.2-1.2-1.2
			C142.4,11.7,141.9,12.2,141.9,12.9 M142.8,13.8h-0.4v-1.7h1c0.4,0,0.6,0.1,0.6,0.5c0,0.3-0.2,0.4-0.5,0.5l0.4,0.7h-0.4l-0.4-0.7
			h-0.3V13.8z M143.3,12.8c0.2,0,0.3,0,0.3-0.3c0-0.2-0.2-0.2-0.4-0.2h-0.4v0.5H143.3z"/>
	</g>
</g>
</svg>
