<?xml version="1.0" encoding="utf-8"?>
<!-- Generator: Adobe Illustrator 24.3.0, SVG Export Plug-In . SVG Version: 6.00 Build 0)  -->
<svg version="1.1" id="Layer_1" xmlns="http://www.w3.org/2000/svg" xmlns:xlink="http://www.w3.org/1999/xlink" x="0px" y="0px"
	 viewBox="0 0 223.2 58.1" style="enable-background:new 0 0 223.2 58.1;" xml:space="preserve">
<style type="text/css">
	.st0{fill:#FFFFFF;}
</style>
<g>
	<path class="st0" d="M109.8,42c-1.5-0.8-2.2-2-2.8-3.3c-1.2-2.8-1.5-5.8-1.7-8.8c-0.2-1.9-0.1-0.3-0.1-2.3l0-2.1
		c0-0.3,0.1-0.5,0.2-0.8c0.1-0.3,0.7-0.8,1.1-0.7c2.2,0.1,0.8,0.1,2.9,0.1c0.8,0,1.6-0.1,2.5-0.1c0.7-0.1,1.3-0.8,1.5-1.6
		c0.1-0.4-0.3-1.3-0.6-1.4c-1.4-0.5-2.8-1-4.4-1.1c0.1,0,0,0-0.2,0c-0.1,0-0.1,0-0.2,0c0,0-0.1,0-0.1,0c-2-0.1-2.4-0.5-2.5-2.1
		l-0.2-5.6c-0.1-1.2-0.1-2.5-0.3-3.7c-0.3-1.6-1.8-2.4-4-2.1c-0.6,0.1-0.9,0.5-1,0.8c-0.2,0.5-0.3,1.1-0.3,1.6
		c-0.1,2.1-0.1,3.3-0.2,5.3c0,0.4,0,0.9-0.1,1.2c0,0,0,0,0,0c0.2,1.3,0.1,2.7,0,4.1c0,0.7-0.1,1.3-0.1,2c0,0,0,0,0,0
		c0.1,3.1,0.1,6.1,0.2,9.1c0.1,3.2,0.5,6.3,1.8,9.3c1.1,2.6,3.3,4.3,6.1,5.5c0.8,0.4,1.9,0.5,2.9,0.2c0.8-0.2,1.4-0.5,1.5-1
		c0.1-0.6,0.1-1.1-0.4-1.5C110.8,42.6,110.3,42.2,109.8,42z"/>
	<path class="st0" d="M36.7,42c-1.3-0.6-2-1.4-2.2-2.7c-0.2-1.2-0.7-2.4-0.7-3.5c-0.1-4.3-0.1-8.5,0.7-12.7c0.8-4.5,1.6-9,2.3-13.6
		c0.3-1.5,0.4-2.9,0.6-4.4c0.1-1.3-0.4-2.4-1-3.4c-0.6-1-2.4-1.8-3.9-1.6c-0.6,0.1-1.5,0.9-1.5,1.4c-0.2,2.3-0.2,4.7-0.6,7
		c-0.5,3.4-1.4,7.2-1.8,10.6c-0.6,4.6-1.1,8.6-1.6,13.1c-0.2,3.2,0.3,6.5,1.1,9.6c0.2,0.6,0.6,1.3,1.1,1.8c2.1,1.8,4.5,2.3,7.3,1.4
		c0.4-0.1,0.7-0.3,1-0.5c0.5-0.3,0.7-1.4,0.3-1.8C37.3,42.5,37,42.2,36.7,42z"/>
	<path class="st0" d="M65.5,23.2c0.1-2.1-0.2-4.2-0.4-6.3c-0.1-1.4-1.1-2.2-2.4-2.3c-5.2-3.3-6.6-2.9-10-2.6c-2,0.2-3.6,1-5,2.4
		c-4.5,4.4-7.1,9.9-8.1,16.1c-0.4,2.4-0.6,4.8-0.3,7.3c0.6,4.1,4.5,7.2,8.6,6.6c2.2-0.3,4-1.2,5.3-3c2.1-2.6,3.7-5.5,5.2-8.4
		c0.2-0.4,0.5-0.6,0.9-0.4c0.1,0.1,0.3,0.2,0.3,0.3c0.3,1.5,0.6,3.1,0.7,3.4c0.3,3,0.4,4.7,0.7,6.4c0.2,1.7,1.5,2.6,3.3,2.7
		c1.6,0.1,2.8-1,2.7-2.5c-0.1-1.4-0.2-2.8-0.4-4.2C65.9,32.8,65.4,29.4,65.5,23.2z M57.1,22.8c-1.8,4.7-3.7,9.4-6.4,13.7
		c-0.7,1-1.4,2-2.2,3c-0.3,0.3-0.8,0.6-1.3,0.8c-0.5,0.2-1,0.2-1.4-0.3c-0.9-0.9-1.2-2.1-1.3-3.3c0.1-8,2.5-15,8.8-20.3
		c0.5-0.4,1.2-0.7,1.8-1c1-0.4,2.3,0.4,2.4,1.3C57.8,18.8,57.9,20.9,57.1,22.8z"/>
	<path class="st0" d="M92.1,13c-2.9-2.2-6.9-1.9-9.1,0.9c-1.1,1.3-2,2.9-2.9,4.4c-0.7,1.2-1.2,2.6-1.9,3.9c-0.2,0.3-0.7,0.6-1.2,0.9
		l-0.5-3c-0.3-1.8-0.8-3.4-1.7-5c-1-2-3.2-3-5.7-2.7c-0.6,0-0.8,0.5-1.1,0.9c-0.3,0.5-0.1,1,0.2,1.3c1.8,1.4,2.4,3.3,2.8,5.5
		c0.7,3.5,1,7,0.9,10.6c0,2.4-0.2,4.8-0.2,7.2c-0.1,1.3-0.1,2.6,0,3.9c0.1,1,0.4,1.9,0.8,2.8c0.1,0.3,0.6,0.7,1,0.9
		c0.6,0.2,1.2,0.3,1.9,0.4c1.1,0.1,1.9-0.5,2.1-1.5c0.3-1.3,0.5-2.6,0.6-3.9c1.1-8.2,4.3-15.8,8.4-23c0.1-0.3,0.4-0.6,0.6-0.8
		l0.3-0.3c0.4-0.4,1.5-0.3,1.6,0.3c0.2,0.6,0.4,1.2,0.5,1.8c0.3,2.5,0,4.8-0.4,7.2c-0.5,2.9-1,9.2-0.9,12.1c0,1.5,0.1,2.9,0.4,4.3
		c0.1,0.6,0.7,1.1,1.1,1.5c1,0.7,2.1,0.7,3.2,0.5c0.2-0.1,0.5-0.4,0.6-0.7c0.1-0.5,0.2-0.9,0.2-1.4c-0.2-4.5,0-12.4,0.9-16.9
		c0.4-2,0.4-4.2,0.4-6.3C95,16.5,94,14.5,92.1,13z"/>
	<path class="st0" d="M10.7,10c-1.9,0.5-2.8,1-3.9,2.4C5.4,14.1,4,14.8,2,13.9c-1.1-0.5-2,0.1-2,1.2c0.1,2.7,0.3,5.3,0.1,7.9
		c-0.6,10,0.9,19.9,1.2,29.8c0,0.6,0.7,3.1,1,3.4c0.8,0.8,1.3,1.6,2.4,1.9c1.1,0.2,2.4-0.5,2.6-1.6c0.4-2.6,0.5-5.2,0.1-7.8
		c-0.3-1.7-0.5-5.4-0.7-7.1c-0.1-0.9-0.1-1.9,0.6-2.8c0.6,0.3,1.3,0.4,2,0.8c1,0.5,5.1,1,7.4-0.5c3.4-2.2,4.4-3.6,5.7-5.5
		c2.6-3.8,1.9-10.3,1.4-12.4C23.2,18.9,21.6,9.2,10.7,10z M16.8,30c-4.1,6.2-10.6,2.7-10.5-1.7c-0.4-2.9,0.4-7.3,2-9.6
		c2.8-4,4.7-4,6.5-3.7c1.1,0.4,2,1.2,2.9,2.8C18.8,20.5,19.6,25.2,16.8,30z"/>
	<path class="st0" d="M124.6,29c-0.5-0.3-0.3-0.2-0.4-0.2c-0.1,0-0.2-0.1-0.3-0.1l-0.2-0.1l-0.1,0l-0.2,0l-0.3,0c-0.1,0-0.3,0-0.4,0
		c-0.2,0-0.5,0-0.7,0c-0.5,0-1,0.2-1.4,0.3c-0.9,0.3-1.9,0.4-2.8,0.2c-0.9-0.2-1.8-0.7-2.8-0.8c-0.9-0.1-1.8-0.2-2.9,0
		c-0.8,0.1-1.5,0.8-1.7,1.6c-0.2,1.1,0.5,2.1,1.6,2.4l0.1,0c0.8,0.2,1.8,0.1,2.7,0.1c0.9,0,1.9-0.5,2.8-0.6c0.9-0.1,1.9,0.1,2.8,0.4
		c0.5,0.2,0.9,0.3,1.4,0.4c0.2,0.1,0.5,0.1,0.7,0.1c0.1,0,0.2,0,0.3,0c0,0,0.1,0,0.1,0c0.1,0,0.3,0,0.4,0l0.1,0l0.2,0l0.1,0
		c0.3-0.1,0.5-0.2,0.8-0.3c0.1,0,0.1-0.1,0.2-0.1c0,0,0.5-0.3,0.6-1.1C125.6,30.1,125,29.2,124.6,29z M122.5,28.8
		C122.5,28.8,122.6,28.7,122.5,28.8C122.6,28.7,122.5,28.8,122.5,28.8z M122.8,28.7c0,0,0.1,0,0.1,0l0.1,0l0.1,0l0,0
		C123,28.6,122.9,28.6,122.8,28.7z"/>
	<path class="st0" d="M196.6,14.9c0,0,0,0.1,0,0.1c0,0.1,0,0.1,0.1,0.2c0,0,0.1,0.1,0.1,0.1c0,0,0,0.1,0,0.1c0,0,0,0,0,0
		c0.1,0.1,0.1,0.1,0.2,0.2c0,0,0,0,0,0c0,0,0,0,0.1,0c0.1,0,0.1,0.1,0.2,0.1c0,0,0.1,0,0.1,0.1c0.1,0,0.2,0.1,0.2,0.1
		c0.3,0.1,0.6,0.2,1,0.2c0,0,0.1,0,0.1,0c0.1,0,0.1,0,0.2,0c0.1,0,0.3,0,0.4,0c0.1,0,0.3,0,0.4,0c0,0,0,0,0.1,0c0,0,0,0,0,0
		c0.1,0,0.1,0,0.2,0c0.1,0,0.3-0.1,0.4-0.1c0,0,0,0,0.1,0c0.1,0,0.1-0.1,0.2-0.1c0.1,0,0.1-0.1,0.2-0.1c0,0,0,0,0.1,0
		c0.1-0.1,0.2-0.2,0.3-0.2c0,0,0.1-0.1,0.1-0.1c0,0,0-0.1,0.1-0.1c0.1-0.1,0.1-0.2,0.2-0.3c0,0,0,0,0-0.1c0-0.1,0-0.1,0.1-0.2
		c0-0.1,0-0.1,0-0.2c0,0,0,0,0-0.1c0-0.1,0-0.2,0-0.4c0,0,0-0.1,0-0.1c0,0,0,0,0-0.1c0-0.1-0.1-0.3-0.1-0.4c0,0,0,0,0,0c0,0,0,0,0,0
		c0-0.1-0.1-0.1-0.1-0.2c0-0.1-0.1-0.1-0.1-0.2c0,0-0.1-0.1-0.1-0.1c0,0-0.1-0.1-0.1-0.1c-0.1-0.1-0.1-0.1-0.2-0.2
		c-0.3-0.3-0.4-0.4-0.8-0.6c-0.2-0.1-0.3-0.2-0.5-0.2c-0.7-0.1-1.5,0-2.2,0.2c-0.2,0.1-0.3,0.2-0.5,0.3c-0.1,0.1-0.2,0.2-0.3,0.4
		c-0.1,0.3-0.2,0.7-0.3,1.1c0,0.2,0,0.3,0,0.5c0,0,0,0.2,0,0.2C196.6,14.8,196.6,14.9,196.6,14.9z"/>
	<path class="st0" d="M201.4,13.2C201.4,13.2,201.4,13.2,201.4,13.2C201.4,13.2,201.4,13.3,201.4,13.2z"/>
	<path class="st0" d="M201.4,15.5C201.4,15.5,201.4,15.6,201.4,15.5C201.4,15.5,201.4,15.5,201.4,15.5z"/>
	<path class="st0" d="M197.6,36.1c0.5,1.5,1.4,2.3,2.8,2.7c0.7,0.2,1.5-0.5,1.5-1.3c0-0.5-0.1-1-0.2-1.5c-1.1-2.6-1.2-5.3-1.2-8
		l0-1.9c0.2-2.1,0.3-3.8,0.4-5.5c0.1-1.2-0.6-1.9-1.5-2.4c-1.1-0.5-2.4,0.1-2.5,1.4c-0.5,3.6-0.7,7.2-0.4,10.9
		C196.6,32.3,197,34.2,197.6,36.1z"/>
	<path class="st0" d="M183.5,29c0.1,2.4,0.4,4.7,1.3,6.9c0.8,1.9,2.5,3.2,4.5,4.1c0.6,0.3,1.4,0.3,2.2,0.2c0.6-0.1,1-0.4,1.1-0.7
		c0.1-0.4,0.1-0.9-0.3-1.1c-0.3-0.3-0.6-0.6-1-0.8c-1.1-0.6-1.6-1.5-2.1-2.4c-0.9-2.1-1.1-4.3-1.3-6.6c-0.2-1.4,0-0.2-0.1-1.7l0-1.5
		c0-0.2,0.1-0.4,0.1-0.6c0-0.2,0.5-0.6,0.8-0.6c1.6,0.1,0.6,0.1,2.2,0.1c0.6,0,1.2,0,1.8-0.1c0.5-0.1,1-0.6,1.1-1.2
		c0.1-0.3-0.2-1-0.5-1.1c-1.1-0.4-2.1-0.7-3.2-0.8c0,0,0,0-0.2,0c0,0-0.1,0-0.1,0c0,0,0,0-0.1,0c-1.5-0.1-1.8-0.4-1.9-1.6l-0.1-4.2
		c-0.1-0.9-0.1-1.9-0.3-2.8c-0.2-1.2-1.4-1.8-3-1.6c-0.5,0.1-0.7,0.3-0.8,0.6c-0.1,0.4-0.2,0.8-0.2,1.2c-0.1,1.5-0.1,2.5-0.1,4
		c0,0.3,0,0.6-0.1,0.9c0,0,0,0,0,0c0.2,1,0,2.1,0,3.1c0,0.5-0.1,1-0.1,1.5c0,0,0,0,0,0C183.4,24.5,183.4,26.7,183.5,29z"/>
	<path class="st0" d="M165.8,36.3c1.2,1,2.4,2,3.5,2.9c1.3,1,2.9,1.5,4.5,1.6c0.5,0,0.9,0,1.4-0.1c1.4-0.2,2.7-1.1,3.8-2.6
		c1.4-1.9,1.9-4.2,1.8-7.2c0-1.1-0.4-2.2-1-3.3c-0.8-1.2-1.8-2-2.6-2.7c-1-0.8-2.2-1.5-3.6-2.1c-1.6-0.7-2.7-1.6-3.7-2.9
		c-0.2-0.3-0.4-0.6-0.4-1l0-0.2c0-0.4-0.1-0.8,0-1.1c0-0.9,0.5-1.6,1.4-1.9c1-0.4,2.1-0.2,3,0.6l0.1,0.1c0.6,0.6,1.3,1.2,2.2,1.5
		c0.4,0.2,0.8,0,1-0.1c0.5-0.2,0.6-1.1,0.6-1.6c-0.1-0.6-0.3-1.2-0.8-1.6c-1.6-1.6-3.6-2.4-6-2.6l0,0l-0.9,0.1
		c-0.7,0.1-1.5,0.2-2.2,0.4c-0.4,0.1-0.8,0.4-1.1,0.7c-1,1.2-1.5,2.8-1.4,4.6c0.1,1.6,0.6,3,1.6,4.1c0.6,0.6,1.2,1.3,2,1.9
		c1.3,1.1,2.7,1.9,4.3,2.7c1,0.5,1.8,1.2,2.8,2.2c0.6,0.6,0.9,1.3,0.9,2.1c0,1.5-0.3,2.9-1.1,4.3c-0.3,0.4-0.6,0.8-1.2,1.2
		c-0.7,0.4-1.2,0.5-1.7,0.2c-0.3-0.2-0.7-0.4-1-0.6c-0.4-0.3-0.9-0.5-1.3-0.8c-0.8-0.5-1.3-1.1-1.4-2.4c0-1.3-0.9-2.1-2.3-2.2
		c-1.1-0.1-1.5,0.7-1.9,1.8C164.4,34.3,164.7,35.4,165.8,36.3z"/>
	<path class="st0" d="M211.7,38.9c1.9,0.4,3.8,0.2,5.5,0c1.7-1,2.7-2.5,3.4-4.1c0.5-1,0-2.3-1.2-2.9c-0.8-0.4-2.3-0.1-2.8,0.6
		c-0.6,0.8-1.1,1.6-1.7,2.5c-0.2,0.3-0.5,0.5-0.8,0.7c-0.9,0.5-2.5,0.2-3.2-0.5c-0.7-0.8-1.2-1.6-1.4-2.6c-0.3-1.8-0.3-3.6,0.2-5.3
		c0.4-1.7,1-3.4,1.5-5.1c0.3-1.2,0.9-2.3,1.7-3.3c0.4-0.4,0.9-0.4,1.4-0.3c0.3,0.1,0.7,0.4,0.8,0.7c0.2,0.7,0.2,1.5,0.4,2.2
		c0.1,0.5,0.3,1,0.6,1.3c0.7,0.8,1.7,1.1,2.8,0.9c0.5-0.1,1.2-0.8,1.3-1.3c0.1-1.4-0.2-2.8-0.7-4.1c-0.1-0.2-0.3-0.4-0.4-0.6
		c-1.1-1.3-2.4-2.2-4.2-2.4c-0.9-0.1-1.8-0.2-2.7-0.3c-0.9-0.2-1.7,0.2-2.3,1c-2.7,3.3-4.1,7.2-5,11.3c-0.3,1.5-0.2,3,0,4.5
		C205.4,35.5,208,38.2,211.7,38.9z"/>
	<path class="st0" d="M145.2,35.9c0.8,0.4,1.7,0.5,2.6,0.6c1,0.1,1.9-0.1,2.8-0.6c1.1-0.6,2-1.4,2.8-2.4c0.5-0.6,1.1-1.3,1.6-2
		c0.1-0.1,0.4,0,0.4,0.1c0.1,0.3,0.1,0.6,0.2,0.9c0.1,1,0.2,0.5,0.2,1.5c0,1.1,1.4,3.4,1.7,4.4c0,0.1,0.1,0.1,0.1,0.2
		c0.6,0.5,1.2,0.7,1.6,1.2c0.1,0.1,0.3,0.2,0.4,0.2c0.3,0,0.5,0.1,0.8,0.2c0.9,0.3,1.7-0.2,1.8-1.3c0-0.4,0.1-0.9,0-1.3
		c-0.2-0.9-1-3.1-1-4c-0.1-0.8,0-0.1-0.1-0.9c-0.1-0.9-0.1-1.9-0.5-2.8c-0.2-1.7-0.4-3.4-0.6-5c-0.1-1.4-0.5-2.7-0.5-4.1
		c-0.3-1-0.3-2-0.4-3c0-0.2,0-0.5-0.1-0.7c-0.4-0.7-0.4-1.5-0.5-2.4c0-0.6-0.2-1.1-0.5-1.6c-0.1-0.2-0.3-0.4-0.5-0.5
		c-1-0.5-1.9-1-3.1-0.9c-0.2,0-0.3,0-0.5,0c-0.4,0-0.4,0-1,0.5c-0.1,0.1-0.3,0.2-0.5,0.1c-0.3-0.1-0.5-0.3-0.8-0.2
		c-0.7,0.1-1.5-0.1-2.2-0.2c-0.3,0-0.6,0-0.8,0.1c-0.6,0.3-1.2,0.5-1.6,1.1c-0.4,0.5-0.8,1.1-1.2,1.6c-0.9,1.3-1.5,2.8-2.2,4.3
		c-1.1,2.3-1.8,4.8-2.2,7.3c-0.5,2.8,0.2,5.2,1.8,7.4C144,34.6,144.6,35.2,145.2,35.9z M146,30.6c0.3-1.2,0.5-2.5,0.5-3.7
		c0-0.4,0.1-0.9,0.3-1.3c0.4-1.1,0.9-2.3,1.3-3.4c0.2-0.4,0.4-0.9,0.4-1.3c0.1-1.1,0.7-2.1,1.4-3c0.5-0.7,1.1-2.4,2.3-1.8
		c1,0.4,1.1,2.5,1.2,3.4c0.3,3.3-0.4,6.6-1.8,9.6c-0.4,0.9-0.9,1.8-1.7,2.5c-0.8,0.7-2.5,1.2-3.4,0.7C146,31.9,145.8,31.4,146,30.6z
		"/>
	<path class="st0" d="M130.1,20.6c0,0.1,0.1,0.2,0.1,0.2c0,0.1,0.1,0.2,0.1,0.3c0,2.3,0,4.7,0.1,7c0,0.5,0.1,1.3,0.2,2
		c0,0.4,0.1,0.8,0.1,1.1c-0.2,0.2-0.1,0.4,0,0.9c0,0.1,0.1,0.3,0.1,0.4c0.2,1,0.4,2,0.7,2.9c0.6,1.9,1.9,3.3,3.9,4.4
		c0.4,0.2,0.8,0.3,1.2,0.3c0.3,0,0.5,0,0.8-0.1c0.6-0.2,1.1-0.6,1.2-1.1c0.1-0.5,0.1-1.1-0.3-1.4c-0.2-0.4-0.6-0.7-0.9-0.9
		c-0.8-0.5-1.2-1.3-1.5-2.3c-0.6-1.8-0.8-3.7-0.9-5.2c0-0.2,0-0.3-0.1-0.5c-0.1-0.3-0.1-0.5,0-0.9l0-0.1l0-0.1c0-0.1,0-0.5,0-0.9
		v-0.8l-0.1-2.7l0-1.6c0-0.1,0-0.2,0.1-0.3c0-0.1,0-0.2,0.1-0.2c0-0.1,0.2-0.3,0.3-0.3c0.5,0,0.9,0,1.3,0.1c0.5,0,0.9,0.1,1.7,0.1
		c0.5,0,1.1,0,1.6-0.1c0.7-0.1,1.1-0.9,1.2-1.5c0.1-0.4-0.2-1.3-0.6-1.5l-0.3-0.1c-0.8-0.3-1.7-0.7-2.7-0.7c-0.5,0-0.5,0-0.7,0
		l-0.4,0c-1.1-0.1-1.2-0.2-1.3-1.3l-0.1-2.3c0-0.7-0.1-1.5-0.2-2.2c-0.1-0.7-0.4-1.2-0.8-1.5c-0.5-0.4-1.2-0.5-2.1-0.4
		c-0.5,0.1-0.8,0.4-0.9,0.9c-0.1,0.3-0.2,0.8-0.2,1.3c-0.1,1.6-0.1,2.5-0.1,4.1c0,0.3,0,0.6-0.1,0.8c0,0.1-0.1,0.2-0.2,0.2
		c-0.4,0.1-0.9,0.2-1.4,0.2c-0.8,0-2,0.7-2.4,1.2c-0.1,0.2-0.2,0.3-0.2,0.5c0.2,0.9,1.1,2,2.2,2c0.4,0,0.8,0.1,1.3,0.1L130.1,20.6z"
		/>
	<path class="st0" d="M221.8,41.7c-3.9-0.3-7.7-0.4-11.5-0.3c-1.9,0-3.9,0.1-5.7,0.2l-5.7,0.3c-7.6,0.3-15.1,0.4-22.7,0.5
		c-3.8,0.1-7.6,0.4-11.4,0.5c-3.8,0.1-7.6,0.2-11.4-0.1c-3.8-0.2-7.6-0.4-11.3-0.6c-1.9-0.1-3.8-0.2-5.6-0.3
		c-0.9-0.1-1.8-0.2-2.7-0.3c-0.4-0.1-0.9-0.1-1.3-0.2c-0.2,0-0.4-0.1-0.5-0.1c-0.1,0-0.2-0.1-0.1,0c-0.6-0.6-1.6-0.7-2.2-0.1
		c-0.6,0.6-0.7,1.6-0.1,2.2c0.5,0.5,0.9,0.6,1.2,0.7c0.3,0.1,0.6,0.2,0.9,0.3c0.5,0.1,1,0.2,1.5,0.3c1,0.2,2,0.3,2.9,0.4
		c1.9,0.2,3.9,0.2,5.8,0.3c3.8,0.1,7.6-0.1,11.4-0.3c3.8-0.2,7.6-0.2,11.4-0.2c3.8,0.1,7.6,0.3,11.4,0.3c7.6,0,15.2,0,22.8-0.3
		c1.9-0.1,3.8-0.1,5.7-0.2c1.9-0.1,3.7-0.2,5.6-0.2c3.7-0.1,7.5,0,11.2,0.2l0,0c0.9,0.1,1.6-0.6,1.6-1.5
		C223.3,42.5,222.6,41.7,221.8,41.7z"/>
</g>
</svg>
